<svg width="176" height="50" viewBox="0 0 176 50" fill="none" xmlns="http://www.w3.org/2000/svg">
<path fill-rule="evenodd" clip-rule="evenodd" d="M174.497 49.4929H176V39.7728H174.497V49.4929ZM172.348 41.7394C172.825 41.7394 173.163 41.3883 173.163 40.8689C173.163 40.3354 172.825 39.9978 172.348 39.9978C171.913 39.9978 171.547 40.3354 171.547 40.8689C171.547 41.3883 171.899 41.7394 172.334 41.7394H172.348ZM173.121 42.6526H171.618V49.4929H173.121V42.6526ZM166.884 49.1838C167.179 49.4231 167.811 49.5776 168.345 49.5776C169.637 49.5776 170.606 48.8747 170.606 47.4842C170.606 46.628 170.114 45.9534 169.202 45.4057C168.556 44.984 168.387 44.7738 168.387 44.4084C168.387 44.0294 168.64 43.6925 169.16 43.6925C169.524 43.6925 169.834 43.8186 170.101 43.9868L170.396 42.8776C170.073 42.6946 169.637 42.5401 169.089 42.5401C167.853 42.5401 166.996 43.4112 166.996 44.5914C166.996 45.2796 167.362 45.9392 168.387 46.5433C169.019 46.9507 169.215 47.2314 169.215 47.653C169.215 48.1588 168.893 48.4394 168.359 48.4394C167.896 48.4394 167.432 48.2428 167.179 48.0741L166.884 49.1838ZM164.426 47.3445C164.426 47.4706 164.412 47.5968 164.384 47.6951C164.258 48.2286 163.906 48.4821 163.527 48.4821C163.19 48.4821 162.782 48.2014 162.782 47.4286C162.782 46.2348 163.836 46.0802 164.426 46.066V47.3445ZM165.901 45.2091C165.901 43.7481 165.451 42.5401 163.681 42.5401C162.853 42.5401 162.136 42.8208 161.799 43.0316L162.08 44.0573C162.46 43.8186 162.867 43.6783 163.359 43.6783C164.103 43.6783 164.384 44.1698 164.384 44.8857V45.0687C162.839 45.0829 161.35 45.8273 161.35 47.5832C161.35 48.7912 162.094 49.6055 163.078 49.6055C163.668 49.6055 164.173 49.3248 164.524 48.8048H164.552L164.636 49.4929H165.986C165.914 49.0435 165.901 48.4679 165.901 47.9343V45.2091ZM157.894 49.4929H159.397V45.8694C159.397 45.6165 159.425 45.3772 159.454 45.2233C159.622 44.4789 160.142 44.043 160.661 44.043C160.788 44.043 160.887 44.043 160.984 44.0573V42.5685C160.887 42.5549 160.802 42.5401 160.661 42.5401C160.1 42.5401 159.538 42.9902 159.271 43.6783H159.229L159.145 42.6526H157.838C157.867 43.2288 157.894 43.9454 157.894 44.5772V49.4929ZM153.161 45.0965H153.597C154.453 45.0965 155.225 45.6585 155.225 46.7683C155.225 47.8496 154.552 48.3974 153.639 48.3974C153.442 48.3974 153.288 48.3832 153.161 48.356V45.0965ZM153.161 41.1781C153.288 41.136 153.47 41.1218 153.695 41.1218C154.622 41.1218 154.987 41.7116 154.987 42.4986C154.987 43.3555 154.369 43.9732 153.597 43.9732H153.161V41.1781ZM151.672 49.4651C152.037 49.5208 152.543 49.5634 153.245 49.5634C154.608 49.5634 155.535 49.2685 156.082 48.6503C156.518 48.1866 156.77 47.5689 156.77 46.7825C156.77 45.6449 156.153 44.746 155.071 44.4505V44.4084C155.984 44.0152 156.462 43.2146 156.462 42.3292C156.462 41.656 156.252 41.0513 155.788 40.6445C155.212 40.1246 154.397 39.9842 153.54 39.9842C152.824 39.9842 152.178 40.0541 151.672 40.1666V49.4651ZM145.773 48.4537C144.987 48.4537 144.79 47.2178 144.79 46.066C144.79 45.0687 144.945 43.6925 145.759 43.6925C146.532 43.6925 146.7 45.0687 146.7 46.066C146.7 47.1053 146.532 48.4537 145.787 48.4537H145.773ZM145.745 49.6055C146.77 49.6055 148.203 48.8191 148.203 46.0517C148.203 43.7908 147.22 42.5401 145.787 42.5401C144.509 42.5401 143.287 43.6078 143.287 46.0938C143.287 48.3974 144.284 49.6055 145.731 49.6055H145.745ZM140.688 47.0768C140.688 47.2462 140.674 47.4008 140.632 47.5127C140.449 48.2286 140.099 48.3696 139.818 48.3696C139.185 48.3696 138.82 47.4842 138.82 46.108C138.82 44.8857 139.087 43.8044 139.845 43.8044C140.295 43.8044 140.604 44.2959 140.661 44.8437C140.688 44.984 140.688 45.1386 140.688 45.2659V47.0768ZM140.688 39.7734V43.2844H140.661C140.436 42.8072 140.028 42.5401 139.466 42.5401C138.356 42.5401 137.318 43.6925 137.318 46.0938C137.318 48.1588 138.062 49.6055 139.396 49.6055C140.056 49.6055 140.59 49.1702 140.815 48.6787H140.857L140.955 49.4929H142.233C142.206 48.9736 142.177 48.2014 142.177 47.6388V39.7734H140.688Z" fill="white"/>
<path fill-rule="evenodd" clip-rule="evenodd" d="M11.4167 29.0418C14.5005 29.0418 16.3417 27.4307 16.3417 24.8062C16.3417 22.2287 14.6848 20.4333 11.5082 20.4333H6.26105V29.0418H11.4167ZM10.7724 15.1849C13.6721 15.1849 15.4217 13.5738 15.4217 11.0878C15.4217 8.60238 13.8105 7.03696 10.7261 7.03696H6.26105V15.1849H10.7724ZM11.7388 1.69711C18.0913 1.69711 21.6821 5.4258 21.6821 10.4899C21.6821 13.8501 19.6567 16.5661 16.9408 17.4873C20.1167 18.2694 22.6948 21.1702 22.6948 25.221C22.6948 30.5151 18.7355 34.3359 12.6136 34.3359H0V1.69711H11.7388Z" fill="white"/>
<path fill-rule="evenodd" clip-rule="evenodd" d="M41.7328 20.4234C41.6407 18.168 40.1674 15.9577 36.6693 15.9577C33.4921 15.9577 31.7431 18.3516 31.6052 20.4234H41.7328ZM47.4411 27.8344C46.2906 31.7479 42.6998 35.0166 37.1293 35.0166C30.9146 35.0166 25.4363 30.551 25.4363 22.9093C25.4363 15.682 30.7768 10.9857 36.5772 10.9857C43.574 10.9857 47.7633 15.4514 47.7633 22.7251C47.7633 23.5999 47.6711 24.5199 47.6711 24.612H31.4673C31.6052 27.6044 34.1376 29.7682 37.1751 29.7682C40.0295 29.7682 41.5943 28.3413 42.3313 26.3153L47.4411 27.8344Z" fill="white"/>
<path fill-rule="evenodd" clip-rule="evenodd" d="M51.8059 0.996395H57.9285V34.3252H51.8059V0.996395Z" fill="white"/>
<path fill-rule="evenodd" clip-rule="evenodd" d="M78.3402 22.3105C78.3402 18.8118 75.9463 16.6022 73.0003 16.6022C69.9622 16.6022 67.5677 18.8118 67.5677 22.3105C67.5677 25.855 69.8237 28.0652 73.0003 28.0652C76.1305 28.0652 78.3402 25.8092 78.3402 22.3105ZM66.9235 34.0957C67.3377 36.5811 69.3174 38.3765 72.2176 38.3765C76.0848 38.3765 78.2481 36.4426 78.2481 32.0697V30.4121C77.3275 31.8854 75.21 33.313 71.9412 33.313C65.9108 33.313 61.3994 28.6631 61.3994 22.3105C61.3994 16.3258 65.7266 11.2624 71.9412 11.2624C75.5321 11.2624 77.6038 12.8272 78.3865 14.3462V11.6766H84.2785V31.8854C84.2785 38.1001 80.9183 43.7627 72.4018 43.7627C66.1872 43.7627 62.0436 39.8955 61.3994 35.5684L66.9235 34.0957Z" fill="white"/>
<path fill-rule="evenodd" clip-rule="evenodd" d="M105.366 23.0015C105.366 18.7201 102.603 16.5568 99.611 16.5568C96.6193 16.5568 93.8569 18.7201 93.8569 23.0015C93.8569 27.2365 96.6193 29.4461 99.611 29.4461C102.603 29.4461 105.366 27.2829 105.366 23.0015ZM111.488 23.0015C111.488 29.9525 106.379 35.0166 99.611 35.0166C92.8449 35.0166 87.7344 29.9525 87.7344 23.0015C87.7344 16.0047 92.8449 10.9863 99.611 10.9863C106.379 10.9863 111.488 16.0047 111.488 23.0015Z" fill="white"/>
<path fill-rule="evenodd" clip-rule="evenodd" d="M123.058 11.6763H127.616V17.1082H123.058V26.5916C123.058 28.5707 123.979 29.2155 125.728 29.2155C126.465 29.2155 127.294 29.124 127.616 29.0312V34.0954C127.064 34.3254 125.958 34.6475 124.163 34.6475C119.744 34.6475 116.982 32.023 116.982 27.6507V17.1082H112.885V11.6763H114.035C116.429 11.6763 117.534 10.1108 117.534 8.08545V4.90948H123.058V11.6763Z" fill="white"/>
<path fill-rule="evenodd" clip-rule="evenodd" d="M145.984 20.4234C145.892 18.168 144.419 15.9577 140.92 15.9577C137.743 15.9577 135.994 18.3516 135.856 20.4234H145.984ZM151.692 27.8344C150.541 31.7479 146.95 35.0166 141.38 35.0166C135.166 35.0166 129.687 30.551 129.687 22.9093C129.687 15.682 135.027 10.9857 140.828 10.9857C147.825 10.9857 152.014 15.4514 152.014 22.7251C152.014 23.5999 151.922 24.5199 151.922 24.612H135.718C135.856 27.6044 138.388 29.7682 141.426 29.7682C144.28 29.7682 145.845 28.3413 146.582 26.3153L151.692 27.8344Z" fill="white"/>
<path fill-rule="evenodd" clip-rule="evenodd" d="M160.559 22.9553L152.504 11.6765H159.776C160.559 12.9204 163.505 17.1548 164.288 18.3981L168.753 11.6765H175.704L167.786 22.7716L175.981 34.3262H168.799L164.058 27.3745C163.229 28.6178 160.19 33.0829 159.408 34.3262H152.504L160.559 22.9553Z" fill="white"/>
</svg>
