<?xml version="1.0" encoding="utf-8"?>
<!-- Generator: Adobe Illustrator 16.0.0, SVG Export Plug-In . SVG Version: 6.00 Build 0)  -->
<!DOCTYPE svg PUBLIC "-//W3C//DTD SVG 1.1//EN" "http://www.w3.org/Graphics/SVG/1.1/DTD/svg11.dtd">
<svg version="1.1" id="Layer_1" xmlns="http://www.w3.org/2000/svg" xmlns:xlink="http://www.w3.org/1999/xlink" x="0px" y="0px"
	 width="490.722px" height="265.649px" viewBox="0 0 490.722 265.649" enable-background="new 0 0 490.722 265.649"
	 xml:space="preserve">
<path fill="#FFFFFF" d="M5.783,0h174.292v265.649H0V0H5.783z M168.524,11.551H11.551v242.548h156.973V11.551z"/>
<path fill="#FFFFFF" d="M65.482,177.949c-32.713,0-49.094-13.864-49.094-41.67c0-27.76,16.381-41.654,49.094-41.654h98.204v20.835
	H90.038c-20.444,0-30.714,6.971-30.714,20.819c0,13.91,10.27,20.835,30.714,20.835h24.555c32.714,0,49.094,13.895,49.094,41.654
	c0,27.774-16.38,41.669-49.094,41.669H16.388v-20.834h73.649c20.443,0,30.666-6.925,30.666-20.835
	c0-13.896-10.223-20.819-30.666-20.819H65.482z"/>
<path fill="#FFFFFF" d="M194.032,22.648h158.989v243.001H188.249V22.648H194.032z M341.486,34.199H199.8v219.899h141.686V34.199z"/>
<path fill="#FFFFFF" d="M292.939,107.941c29.729,0,44.625,12.629,44.625,37.856c0,12.691-3.768,22.194-11.27,28.493
	c7.502,6.299,11.27,15.787,11.27,28.479v37.574l-39.061,0.094V202.77c0-12.629-9.283-18.928-27.869-18.928h-27.899v56.596h-38.903
	l-0.125-132.496H292.939z M242.735,164.726h27.899c18.586,0,27.869-6.299,27.869-18.928c0-12.598-9.283-18.928-27.869-18.928
	h-27.899V164.726z"/>
<path fill="#FFFFFF" d="M367.384,44.39h123.338v221.275H361.585V44.39H367.384z M479.14,55.987H373.183v198.096H479.14V55.987z"/>
<path fill="#FFFFFF" d="M442.261,144.767c21.477,0,32.213,9.128,32.213,27.337c0,18.24-10.736,27.337-32.213,27.337h-36.246v40.997
	h-28.104l-0.078-95.671H442.261z M406.015,185.764h20.146c13.41,0,20.117-4.548,20.117-13.66c0-9.097-6.707-13.661-20.117-13.661
	h-20.146V185.764z"/>
</svg>
