<?xml version="1.0" encoding="utf-8"?>
<!-- Generator: Adobe Illustrator 16.0.0, SVG Export Plug-In . SVG Version: 6.00 Build 0)  -->
<!DOCTYPE svg PUBLIC "-//W3C//DTD SVG 1.1//EN" "http://www.w3.org/Graphics/SVG/1.1/DTD/svg11.dtd">
<svg version="1.1" id="Layer_1" xmlns="http://www.w3.org/2000/svg" xmlns:xlink="http://www.w3.org/1999/xlink" x="0px" y="0px"
	 width="490.739px" height="315.4px" viewBox="0 0 490.739 315.4" enable-background="new 0 0 490.739 315.4" xml:space="preserve">
<g>
	<polygon fill="#E08B4C" points="5.784,5.783 174.308,5.783 174.308,259.882 5.784,259.882 	"/>
	<path fill="#814B31" d="M5.792,0h174.292v265.649H0.008V0H5.792z M168.532,11.551H11.559v242.549h156.973V11.551L168.532,11.551z"
		/>
	<path fill="#814B31" d="M65.49,177.949c-32.713,0-49.094-13.864-49.094-41.67c0-27.76,16.381-41.654,49.094-41.654h98.204v20.835
		H90.046c-20.444,0-30.714,6.972-30.714,20.819c0,13.91,10.27,20.835,30.714,20.835h24.555c32.714,0,49.094,13.895,49.094,41.654
		c0,27.773-16.38,41.669-49.094,41.669H16.396v-20.834h73.649c20.443,0,30.666-6.925,30.666-20.835
		c0-13.896-10.223-20.819-30.666-20.819H65.49z"/>
</g>
<g>
	<polygon fill="#E08B4C" points="194.033,28.416 347.254,28.416 347.254,259.882 194.033,259.882 	"/>
	<path fill="#814B31" d="M194.041,22.648H353.03v243.001H188.257V22.648H194.041z M341.495,34.199H199.808v219.899h141.687V34.199z"
		/>
	<path fill="#814B31" d="M292.947,107.941c29.729,0,44.626,12.629,44.626,37.855c0,12.691-3.77,22.194-11.271,28.493
		c7.502,6.299,11.271,15.787,11.271,28.479v37.573l-39.063,0.095v-37.668c0-12.629-9.282-18.929-27.867-18.929h-27.899v56.597
		H203.84l-0.125-132.496H292.947L292.947,107.941z M242.744,164.725h27.899c18.585,0,27.867-6.3,27.867-18.929
		c0-12.598-9.282-18.928-27.867-18.928h-27.899V164.725z"/>
</g>
<g>
	<polygon fill="#E08B4C" points="367.385,50.188 484.94,50.188 484.94,259.882 367.385,259.882 	"/>
	<path fill="#814B31" d="M367.393,44.389h123.338v221.274H361.594V44.389H367.393z M479.149,55.987H373.192v198.096h105.957V55.987z
		"/>
	<path fill="#814B31" d="M442.27,144.766c21.477,0,32.213,9.128,32.213,27.337c0,18.239-10.736,27.337-32.213,27.337h-36.246v40.997
		H377.92l-0.078-95.671H442.27z M406.024,185.763h20.146c13.41,0,20.117-4.549,20.117-13.66c0-9.098-6.707-13.661-20.117-13.661
		h-20.146V185.763z"/>
</g>
<g>
	<path fill="#814B31" d="M14.864,304.037c-5.049,0-7.565-2.517-7.565-7.564c0-5.049,2.516-7.564,7.565-7.564H30.01v3.782H18.646
		c-3.142,0-4.736,1.266-4.736,3.782c0,2.531,1.594,3.781,4.736,3.781h3.783c5.048,0,7.581,2.532,7.581,7.565
		c0,5.049-2.532,7.581-7.581,7.581H7.299v-3.783h11.347c3.157,0,4.736-1.266,4.736-3.798c0-2.517-1.579-3.782-4.736-3.782H14.864
		L14.864,304.037z M51.767,304.037v-11.348h-5.673c-4.423,0-6.627,3.157-6.627,9.456v1.892H51.767z M39.466,307.819v7.581h-6.627
		v-13.255c0-8.831,3.782-13.238,11.347-13.238h14.192V315.4h-6.612v-7.581H39.466z M76.369,288.907c5.033,0,7.565,2.516,7.565,7.564
		c0,2.531-0.641,4.438-1.907,5.688c1.266,1.267,1.907,3.157,1.907,5.705v7.502l-6.627,0.032v-7.534c0-2.532-1.579-3.782-4.736-3.782
		h-4.72V315.4H61.24l-0.016-26.493H76.369L76.369,288.907z M67.85,300.254h4.72c3.157,0,4.736-1.25,4.736-3.781
		c0-2.518-1.579-3.782-4.736-3.782h-4.72V300.254z M110.411,288.907v3.782h-8.503V315.4h-6.612l-0.016-22.711h-8.518v-3.782H110.411
		L110.411,288.907z M126.525,292.689c-4.423,0-6.627,3.157-6.627,9.456c0,6.313,2.204,9.472,6.627,9.472
		c4.408,0,6.612-3.157,6.612-9.472C133.137,295.846,130.933,292.689,126.525,292.689z M128.417,288.907
		c7.565,0,11.347,4.407,11.347,13.238s-3.782,13.255-11.347,13.255h-3.783c-7.581,0-11.363-4.424-11.379-13.255
		c0.016-8.831,3.798-13.238,11.379-13.238H128.417z M157.723,288.907c5.048,0,7.565,2.516,7.565,7.564
		c0,2.531-0.641,4.438-1.907,5.688c1.266,1.267,1.907,3.157,1.907,5.705v7.502l-6.627,0.032v-7.534c0-2.532-1.579-3.782-4.72-3.782
		h-4.736V315.4h-6.596l-0.031-26.493H157.723L157.723,288.907z M149.205,300.254h4.736c3.142,0,4.72-1.25,4.72-3.781
		c0-2.518-1.579-3.782-4.72-3.782h-4.736V300.254L149.205,300.254z M174.744,288.907V315.4h-6.596l-0.016-26.493H174.744
		L174.744,288.907z"/>
	<path fill="#814B31" d="M209.193,288.907c5.033,0,7.565,2.516,7.565,7.564c0,2.531-0.641,4.438-1.907,5.688
		c1.266,1.267,1.907,3.157,1.907,5.705v7.502l-6.627,0.032v-7.534c0-2.532-1.579-3.782-4.72-3.782h-4.736V315.4h-6.612
		l-0.016-26.493H209.193L209.193,288.907z M200.675,300.254h4.736c3.142,0,4.72-1.25,4.72-3.781c0-2.518-1.579-3.782-4.72-3.782
		h-4.736V300.254L200.675,300.254z M226.292,304.037c0.422,5.048,2.595,7.58,6.549,7.58h9.457v3.783H230.95
		c-7.581,0-11.363-4.424-11.363-13.255s3.783-13.238,11.363-13.238h11.348v3.782h-9.457c-3.954,0-6.127,2.517-6.549,7.563h14.114
		v3.783L226.292,304.037L226.292,304.037z M264.993,288.923l6.627-0.016l0.017,13.238L262.15,315.4h-7.551l-9.472-13.255v-13.254
		l6.627,0.016l-0.016,11.347h0.016l6.627,9.457l6.611-9.457V288.923L264.993,288.923z M281.155,304.037
		c0.422,5.048,2.594,7.58,6.549,7.58h9.471v3.783h-11.36c-7.565,0-11.349-4.424-11.349-13.255s3.781-13.238,11.349-13.238h11.36
		v3.782h-9.471c-3.955,0-6.127,2.517-6.549,7.563h14.113v3.783L281.155,304.037L281.155,304.037z M307.569,304.037
		c-5.049,0-7.564-2.517-7.564-7.564c0-5.049,2.518-7.564,7.564-7.564h15.146v3.782h-11.363c-3.143,0-4.736,1.266-4.736,3.782
		c0,2.531,1.594,3.781,4.736,3.781h3.783c5.047,0,7.58,2.532,7.58,7.565c0,5.049-2.533,7.581-7.58,7.581h-15.131v-3.783h11.348
		c3.156,0,4.736-1.266,4.736-3.798c0-2.517-1.58-3.782-4.736-3.782H307.569L307.569,304.037z M349.192,288.907v3.782h-8.502V315.4
		h-6.611l-0.016-22.711h-8.52v-3.782H349.192L349.192,288.907z"/>
	<path fill="#814B31" d="M385.985,288.907c5.049,0,7.582,2.516,7.582,7.564c0,5.048-2.533,7.564-7.582,7.564h-8.518V315.4h-6.596
		l-0.016-26.493H385.985L385.985,288.907z M377.467,300.254h4.736c3.156,0,4.736-1.25,4.736-3.781c0-2.518-1.58-3.782-4.736-3.782
		h-4.736V300.254z M403.022,288.907V315.4h-6.611l-0.016-26.493H403.022L403.022,288.907z M413.432,304.037
		c-5.049,0-7.58-2.517-7.58-7.564c0-5.049,2.531-7.564,7.58-7.564h15.129v3.782h-11.346c-3.158,0-4.736,1.266-4.736,3.782
		c0,2.531,1.578,3.781,4.736,3.781h3.781c5.049,0,7.563,2.532,7.563,7.565c0,5.049-2.516,7.581-7.563,7.581H405.85v-3.783h11.363
		c3.143,0,4.719-1.266,4.719-3.798c0-2.517-1.576-3.782-4.719-3.782H413.432L413.432,304.037z M444.661,292.689
		c-4.408,0-6.627,3.157-6.627,9.456c0,6.313,2.219,9.472,6.627,9.472s6.627-3.157,6.627-9.472
		C451.288,295.846,449.069,292.689,444.661,292.689z M446.551,288.907c7.566,0,11.348,4.407,11.348,13.238
		s-3.781,13.255-11.348,13.255h-3.781c-7.564,0-11.363-4.424-11.379-13.255c0.016-8.831,3.814-13.238,11.379-13.238H446.551z
		 M468.293,304.037c-5.049,0-7.564-2.517-7.564-7.564c0-5.049,2.516-7.564,7.564-7.564h15.146v3.782h-11.363
		c-3.145,0-4.736,1.266-4.736,3.782c0,2.531,1.594,3.781,4.736,3.781h3.781c5.049,0,7.582,2.532,7.582,7.565
		c0,5.049-2.533,7.581-7.582,7.581h-15.131v-3.783h11.35c3.156,0,4.734-1.266,4.734-3.798c0-2.517-1.578-3.782-4.734-3.782H468.293
		L468.293,304.037z"/>
</g>
</svg>
